<?xml version="1.0" encoding="utf-8"?>
<!-- Generator: Adobe Illustrator 21.0.2, SVG Export Plug-In . SVG Version: 6.00 Build 0)  -->
<svg version="1.1" id="Layer_1" xmlns="http://www.w3.org/2000/svg" xmlns:xlink="http://www.w3.org/1999/xlink" x="0px" y="0px"
	 viewBox="0 0 850.4 850.4" style="enable-background:new 0 0 850.4 850.4;" xml:space="preserve">
<style type="text/css">
	.st0{fill:#48AE57;}
	.st1{fill:#2B602F;}
	.st2{fill:#308540;}
	.st3{fill:#B3CCA6;}
	.st4{fill:#275A2B;}
</style>
<g>
	<path class="st0" d="M474.3,287.7c-0.4,3-1.1,5.9-2,8.6c-12,4.4-19.8,12.9-22.4,24.7c-3.7,16.8,5.2,35.1,20.3,43.9
		c-0.3,0.9-0.7,1.8-1.1,2.7c-5.9,13-19.4,19.2-34.7,16.7c-16.8-2.7-30.5-11.1-42.2-23c-1.7-1.8-5.2-0.7-4.4,1.5
		c4.6,13.3,6.4,26.4,3.9,39.6l-74.9-0.1c-0.1,0-34,0.1-34,0.1c-5.6-2.5-10.6-6.3-14.2-11.3c9.6-6.4,16.4-16.1,18.3-26.8
		c1.5-9.2,0-18.1-4.7-26.6c7-5.7,15.2-9.9,24.1-13.1c0.7-0.2,1.4-0.5,2.1-0.8c2.4-0.8,2-4.3-0.5-4.6l-0.1,0
		c-15.6-1.8-29.8-7.3-41.7-17.7c-2.9-2.5-5.4-5.2-7.4-8.2c7.7-4,14.3-9.1,19.9-15.1c11.1-11.9,15.5-25.2,12.8-38.2
		c3.5,0,7.1,0.5,10.8,1.3c0.7,0.2,1.5-0.3,1.5-1.1l0.5-4.9c0.5-5.1,1.6-9.8,3.4-14c1.8,2.8,3.8,5.8,5.9,9.2c0.9,1.4,2.4,2.2,4,2.2
		c2.5,0,4.5-1.9,4.7-4.3c0.2-2.5,0.5-5.9,0.7-7.9c0.2-1.9-0.3-3.8-1.3-5.5c-0.9-1.4-2.5-3.9-4.5-6.9c2.5-2.3,5.4-4.3,8.6-6
		c4.2-2.3,8.5-3.5,12.7-3.8c2.3,2.5,5.1,4.7,8.3,6.6c5.2,3,10.9,4.6,16.3,4.6c0.2,0,0.4,0,0.7,0c0.3,0.4,0.7,0.7,1,1.1
		c9.7,11.5,13.5,25.2,14.1,39.9c0,0.3,0,0.6,0,1c0.1,1.7,2.4,2.2,3.1,0.6c0,0,0-0.1,0.1-0.1c3.8-4.4,19.6-18.5,35.6-32.2l1.2-1.1
		c1.5-1.3,3-2.6,4.5-3.9c1.4-1.1,2.7-2.3,4-3.4c4-3.3,7.7-6.5,11.2-9.4c5,2.8,10.4,4.3,16.4,4.5c-1.4,1.2-2.6,2.5-3.8,3.9
		c-38,31.1-45.7,42.1-54.1,53.9c-0.1,0.2-0.1,0.4-0.1,0.6c0,0.9,1.1,1.6,1.9,1c1-0.7,1.9-1.4,2.7-2c10.6-7.8,22.3-13.2,35.4-13.8
		c6.2-0.3,12.9,0.3,18.7,2.5C469.5,257.5,476.5,271.8,474.3,287.7z"/>
	<path class="st1" d="M435.8,146c-11,3.5-21.8,2.2-32.5-1.6c-0.2-0.1-0.5-0.2-0.7-0.3c-1.2-0.4-2.3,1.1-1.4,2c0,0,0.1,0.1,0.1,0.1
		c3.5,6.8,17,47.7,21.7,63.8c-3.1,2.6-6.2,5.3-9.4,8c-13-45-19.1-54.4-25.5-64.7c-0.2-0.2-0.4-0.3-0.7-0.3c-0.6,0-1.1,0.5-0.9,1.1
		c0.2,0.9,0.4,1.7,0.6,2.5c2.4,9.8,2.8,19.7-0.6,29.2c-1.6,4.5-4,9.1-7.2,12.6c-3.7,4.1-8.6,6.3-13.9,6.8c-5.4,0.5-11.2-0.8-16.7-4
		c-3.4-2-6.2-4.4-8.6-7.2c-2.6-3.1-4.6-6.7-6-10.8c-0.3-1.1-0.7-2.1-1-3.2c-0.1-0.2-0.4-0.4-0.6-0.3c-3.1,1.2-5.9,2.6-8.9,3.3
		c-8.3,2-15.9,1.1-22.5-2.8c5.2-0.8,9.8-2.6,13.9-5.4c8.4-5.8,11.4-15.2,7.6-24.1c-3.3-7.9-9.2-12.8-17.7-14.7
		c0.5-2.3,0.6-4.5,0.5-6.7c4.5-3.4,9.5-6.1,15-8.3c1.8-0.7,2-3.5,0.2-3.6c-14.6-0.9-27.4-5.1-37.9-15.8
		c-10.8-10.9-9.8-26.8,1.9-36.6c7.4-6.2,15.8-8.5,25.3-7.3c0.5,0.1,1.1,0.1,1.6,0.2c0.9,0.1,1.7-0.7,1.7-1.6c0-0.3,0-0.6,0-0.9
		c-0.8-14.7,9.8-28.8,23.7-31.4c10.6-2,19.9,2.7,26.8,13.4c6.5,10.2,8.4,21.5,7.9,33.3c0,0.6,0,1.2-0.1,1.7c-0.1,1.9,2.5,2.7,3.4,1
		l0.1-0.1c5.8-10.6,13.9-19.1,24.8-24.5c7.7-3.8,15.6-5,23.7-1.4c9.9,4.4,16.1,16.4,14.9,28.4c-0.6,5.9-2.8,11.2-6.4,16.3
		c-0.3,0.5-0.2,1.1,0.3,1.4l3.4,1.8c10.2,5.3,16.2,13.6,17.4,25.1C454.5,132.5,447.8,142.2,435.8,146z"/>
	<path class="st1" d="M727.9,330.6c-70.7-9.3-85.4-6.7-101.5-4.2c-0.5,0.2-0.8,0.6-0.8,1.1c0,0.5,0.4,1,1,1.1
		c1.2,0.2,2.2,0.4,3.2,0.5c12.4,2,23.9,6.3,33.2,14.9c4.4,4,8.5,9,10.9,14.4c5.7,12.8,0.7,27.1-11.6,36.3
		c-5.4,4.1-11.3,6.6-17.6,7.5h-87c-0.7-4.6-0.9-9.3-0.8-14.2c0-2.4-3-4-4-2c-3,5.9-6.3,11.3-10.1,16.1h-67.1
		c-0.1-0.2-0.1-0.4-0.2-0.6c-3.5-11.5-2-22.3,3.9-32.5c0.3-0.6,0.6-1.1,1-1.8c0.6-1,0.1-2.3-1-2.8c-0.4-0.1-0.7-0.3-1.1-0.4
		c-17.3-6.2-28.3-25.3-24.4-42.5c2.9-13,12.8-21.5,28.4-24.1c14.8-2.5,28.7,0.9,42,7.1c0.7,0.3,1.3,0.6,2,1c2.2,1.1,4.3-1.5,2.8-3.5
		l-0.1-0.1c-9.3-11.9-15.1-25.2-16-40.4c-0.2-3.5-0.1-6.9,0.5-10.1c0.6-0.7,1.1-1.4,1.6-2.2c2.3-3.6,3.3-7.7,3.7-10.5
		c0-0.1,0.1-0.3,0.1-0.4c0.7-0.9,1.4-1.9,2.2-2.8c3.8,6.3,8.7,15.3,15.4,29c0.8,1.7,2.4,2.7,4.3,2.7c2.2,0,4.2-1.6,4.6-3.8
		c0.5-2.5,1.2-5.9,1.6-7.8c0.4-1.9,0.1-3.8-0.7-5.6c-1.7-3.6-6.9-13.4-12.1-22.7c9-2.8,19.6-1.8,28.5,3.1
		c6.5,3.6,11.5,8.8,15.6,15.3c0.4,0.6,1.2,0.7,1.8,0.3l3.7-3c11.1-9,23.5-11.9,37.2-7.7c14.2,4.4,22,16.7,20.5,32.3
		c-1.4,14.4-8.2,26.1-17.8,36.5c-0.2,0.2-0.4,0.4-0.6,0.7c-1.1,1.2,0.1,3.1,1.7,2.5h0.1c10.5-0.7,73.5,4.7,88.7,6.9
		c2,0.3,3.9,1.2,5.3,2.7c2.6,2.6,7.2,7.2,10.6,10.6C730.2,329,729.3,330.8,727.9,330.6z"/>
	<path class="st1" d="M272.5,330.7c8.1,9.4,12.7,20.3,10.5,33c-2.7,15.6-17.4,28.7-34.7,31.3c-8.6,1.3-16.9,0-25.4-3.2
		c-0.8-0.3-1.7,0.2-1.9,1l-1.3,5.4c-0.4,1.5-0.7,2.9-1.2,4.3h-76.4c-3.4-10.4-4-21.4-2.9-32.7c0.1-0.4,0.1-0.7,0.1-1.1
		c0.2-1.9-2.3-2.8-3.4-1.2c0,0.1,0,0.1-0.1,0.1c-5.5,4.8-29.8,20.8-51.9,34.8h-31c46.7-28.3,56.9-39.3,68.1-51
		c0.2-0.2,0.2-0.5,0.2-0.8c0-0.9-1-1.7-2-1.2c-1.2,0.7-2.3,1.2-3.3,1.8c-13,7-26.8,11.1-41.5,9.7c-6.9-0.7-14.3-2.4-20.3-5.7
		c-14.4-7.8-19.9-24.7-15-42.1c3.3-11.5,10-20.5,20.1-27c1.3-0.9,2.7-1.7,4-2.6c0.4-0.2,0.4-0.7,0.2-1c-2.8-3.9-5.8-7.4-7.9-11.4
		c-8.3-15.6-7.6-31.2,1.9-45.9c8.7-13.4,24.5-18.2,41.2-13c18.2,5.6,32.1,17.1,43.2,32.2c1.7,2.3,5.6,1.6,5.1-1
		c-4-20.9-2.7-40.5,8.7-59.1c9.4-15.5,26-21.3,41.6-16c1.9,3.4,4.7,6.2,8.4,8.2c3.1,1.7,6.2,2.9,9.5,3.6c2.3,2.5,4.4,5.2,6.1,8.1
		c-1.6,2.9-2.8,5.9-3.7,9.2c-2.5,9.5,0.8,18.2,8.5,22.8c4,2.3,8.2,3.5,12.3,3.5c4.2,0,8.4-1.2,12.5-3.6c0.9-0.5,1.7-1.1,2.5-1.7
		c3.6,4.5,8.3,7.5,13.9,8.8c1.9,0.4,3.8,0.7,5.7,0.7c2.9,0,5.6-0.5,8-1.5c1.5,2,2.8,4.2,3.9,6.5c6.6,14.2,3.3,29.1-9.3,42.5
		c-12,12.9-27.3,19.6-44.1,23.2c-0.8,0.2-1.7,0.3-2.5,0.5c-2.8,0.6-2.9,4.5-0.1,5.2l0.1,0C246.1,308.9,260.9,317.2,272.5,330.7z"/>
	<path class="st2" d="M541.4,263c-0.2,0.8-1.2,0.9-1.6,0.2c-16.7-33.9-22.2-39.7-28-46.1l0,0c-0.5-0.4-1.2,0.1-0.9,0.7
		c0.3,0.6,0.5,1.1,0.7,1.6c2.8,6.1,4.2,12.4,3.2,19.1c-0.5,3.1-1.5,6.4-3.2,9c-4,6.3-11.8,8.3-19.5,5.5c-5.1-1.8-9-5.1-11.6-9.9
		c-0.3-0.6-0.7-1.3-1-1.9c-0.1-0.2-0.3-0.2-0.5-0.1c-1.9,1.1-3.5,2.4-5.4,3.2c-7.3,3.3-14.3,2.5-20.7-2.2c-5.8-4.3-7.5-11.6-4.7-19
		c3.1-8.1,8.7-14,15.8-18.6c1.1-0.7,0.9-2.5-0.3-2.4c-9.6,1.2-18.4,0-26.5-5.7c-8.3-5.8-9.6-16.2-3.2-24c4-4.9,9.2-7.4,15.5-7.8
		c0.3,0,0.7-0.1,1.1-0.1c0.6-0.1,1.1-0.7,0.9-1.3c0-0.2-0.1-0.4-0.1-0.6c-2.3-9.4,2.9-19.9,11.6-23.3c6.6-2.6,13.2-0.6,19,5.4
		c5.5,5.8,8.1,12.9,9.2,20.7c0.1,0.4,0.1,0.8,0.2,1.1c0.2,1.3,1.9,1.4,2.3,0.2l0,0c2.5-7.6,6.7-14.1,13.2-18.9
		c4.5-3.4,9.5-5.1,15.2-3.8c7,1.7,12.5,8.7,13.1,16.6c0.3,3.9-0.5,7.6-2.2,11.4c-0.2,0.4,0,0.8,0.4,0.9l2.4,0.7
		c7.2,2.2,12.2,6.9,14.3,14.2c2.3,7.5-0.9,14.6-8.3,18.6c-6.7,3.6-13.9,4.1-21.3,2.9c-0.2,0-0.3-0.1-0.5-0.1c-0.9-0.1-1.3,1-0.6,1.5
		l0,0c0,0,0,0,0,0c3.4,4.4,19.5,33.8,23,41.2c0.5,1,0.6,2.1,0.4,3.1C542.6,257.1,541.9,260.5,541.4,263z"/>
	<path class="st2" d="M318.3,228c-0.1,0.8-1.1,1-1.5,0.4c-20.3-31.9-26.3-37-32.8-42.8l0,0c-0.5-0.3-1.2,0.3-0.9,0.8
		c0.3,0.6,0.6,1,0.9,1.5c3.4,5.7,5.6,11.9,5.2,18.6c-0.2,3.2-0.8,6.5-2.2,9.3c-3.3,6.7-10.8,9.5-18.8,7.6c-5.3-1.3-9.5-4.1-12.6-8.6
		c-0.4-0.6-0.8-1.2-1.2-1.8c-0.1-0.2-0.3-0.2-0.5-0.1c-1.7,1.3-3.3,2.8-5,3.8c-6.9,4.1-14,4.1-20.8,0.1c-6.3-3.7-8.7-10.8-6.7-18.4
		c2.2-8.3,7.1-14.9,13.7-20.2c1-0.8,0.6-2.6-0.6-2.3c-9.4,2.2-18.3,2-27-2.8c-8.9-4.9-11.3-15-5.7-23.5c3.5-5.3,8.4-8.4,14.6-9.5
		c0.3-0.1,0.7-0.1,1-0.2c0.6-0.1,1-0.8,0.8-1.4c-0.1-0.2-0.1-0.4-0.2-0.6c-3.3-9.1,0.7-20.1,9-24.4c6.3-3.3,13.1-2.1,19.5,3.4
		c6.1,5.2,9.4,12,11.4,19.5c0.1,0.4,0.2,0.7,0.3,1.1c0.3,1.3,2.1,1.2,2.4,0l0-0.1c1.7-7.8,5.1-14.7,11-20.2
		c4.1-3.9,8.9-6.1,14.7-5.4c7.1,0.9,13.3,7.3,14.9,15.1c0.8,3.9,0.3,7.7-0.9,11.5c-0.1,0.4,0.1,0.8,0.5,0.8l2.5,0.5
		c7.4,1.4,12.8,5.5,15.8,12.5c3.1,7.3,0.7,14.6-6.2,19.3c-6.3,4.3-13.4,5.6-20.9,5.2c-0.2,0-0.3,0-0.5,0c-0.9-0.1-1.2,1.1-0.5,1.6
		l0,0c0,0,0,0,0,0c3.9,4,23.1,31.5,27.3,38.5c0.6,0.9,0.8,2,0.7,3.1C318.9,222.1,318.6,225.5,318.3,228z"/>
	<path class="st3" d="M662.9,406.3H36.3c-15.3,0-27.6,10.1-27.6,22.5v86.8c0,5,5,9,11.1,9h659.8c6.1,0,11.1-4,11.1-9v-86.8
		C690.6,416.4,678.2,406.3,662.9,406.3z M263,493.1H87.9c-16.7,0-30.4-11.1-30.4-24.7s13.7-24.7,30.4-24.7H263
		c16.7,0,30.4,11.1,30.4,24.7S279.7,493.1,263,493.1z M641.7,471.4c0,13.6-13.7,24.7-30.4,24.7H436.2c-16.7,0-30.4-11.1-30.4-24.7v0
		c0-13.6,13.7-24.7,30.4-24.7h175.1C628,446.7,641.7,457.8,641.7,471.4L641.7,471.4z"/>
	<path class="st2" d="M139.5,636.5c-10.6-10.5-25.3-17.1-41.5-17.1c-16.2,0-30.9,6.5-41.5,17.1C45.7,647.2,39,662.1,39,678.5
		c0,32.6,26.4,59,59,59c32.6,0,59-26.4,59-59C157,662.1,150.3,647.2,139.5,636.5z M98,717.9c-21.7,0-39.4-17.7-39.4-39.4
		c0-21.7,17.7-39.4,39.4-39.4c21.7,0,39.4,17.7,39.4,39.4C137.4,700.2,119.8,717.9,98,717.9z"/>
	<path class="st0" d="M133.5,678.5c0,19.5-15.9,35.5-35.5,35.5c-19.6,0-35.5-15.9-35.5-35.5c0-19.6,15.9-35.5,35.5-35.5
		C117.6,643,133.5,658.9,133.5,678.5z"/>
	<path class="st2" d="M640.7,636.5c-10.4-9.5-24.3-15.2-39.5-15.2c-15.2,0-29.1,5.8-39.5,15.2c-11.9,10.8-19.5,26.4-19.5,43.8
		c0,32.6,26.4,59,59,59c32.6,0,59-26.4,59-59C660.1,662.9,652.6,647.3,640.7,636.5z M601.2,719.7c-21.7,0-39.4-17.7-39.4-39.4
		c0-21.7,17.7-39.4,39.4-39.4c21.7,0,39.4,17.7,39.4,39.4C640.6,702,622.9,719.7,601.2,719.7z"/>
	<path class="st0" d="M636.6,680.3c0,19.6-15.9,35.5-35.5,35.5c-19.6,0-35.5-15.9-35.5-35.5c0-19.5,15.9-35.5,35.5-35.5
		C620.7,644.8,636.6,660.8,636.6,680.3z"/>
	<path class="st4" d="M825.4,256l-23.4-5c-17.8-3.8-35.6,7.7-39.3,25.6l-1.1,5.4c-3.6,16.9,6.6,33.7,22.8,38.6l-86.1,258.8
		c-0.2,0.5-0.9,0.4-0.9-0.1l-1-43.8c-0.1-3.6-3.8-6.6-8.4-6.6H9.7c-4.6,0-8.4,3-8.4,6.7V610c0,14.6,14.9,26.5,33.2,26.5h16.7
		c0.9-1,1.7-1.9,2.7-2.8C65.6,622,81.4,615.6,98,615.6c16.7,0,32.4,6.5,44.2,18.2c0.9,0.9,1.8,1.8,2.7,2.8H556c0.9-1,2-2,3-2.9
		c11.6-10.4,26.5-16.2,42.2-16.2c15.6,0,30.6,5.8,42.1,16.2c1.1,0.9,2,1.9,3,2.9h18.5c16.5,0,30.3-9.8,32.8-22.6
		c0.3-1.5,1.6-2.5,3.1-2.5h11.2c6.1,0,11.1-4,11.1-8.8v-11.8c0-1.6,84.2-265.2,84.2-265.2l3.5,0.7c17.8,3.8,35.5-7.7,39.3-25.6
		l1.2-5.4C854.7,277.5,843.2,259.8,825.4,256z M831.8,291.3l-1.2,5.4c-1.3,6.2-6.9,10.8-13.3,10.8c-0.9,0-1.9-0.1-2.8-0.3l-23.4-5
		c-7.3-1.5-12-8.8-10.5-16.1l1.2-5.4c1.3-6.2,6.9-10.8,13.3-10.8c0.9,0,1.9,0.1,2.8,0.3l23.4,5c3.5,0.7,6.6,2.8,8.5,5.9
		C831.8,284.1,832.5,287.8,831.8,291.3z"/>
</g>
</svg>
